<svg xmlns="http://www.w3.org/2000/svg" xmlns:xlink="http://www.w3.org/1999/xlink" width="748" height="726" viewBox="0 0 748 726"><defs><style>.a{fill:#99d3c7;opacity:0.1;}.b{opacity:0.2;}.c{fill:#1dbc86;}.d,.g,.i,.j{fill:#fff;}.e{fill:#646567;}.e,.g{font-size:15px;font-family:Graphik-Regular, Graphik;}.e,.h{opacity:0.5;}.f{fill:#dc3030;}.i{fill-rule:evenodd;}.j{font-size:34px;font-family:Gilroy-SemiBold;font-weight:600;}.k{filter:url(#e);}.l{filter:url(#c);}.m{filter:url(#a);}</style><filter id="a" x="91" y="59" width="421" height="638" filterUnits="userSpaceOnUse"><feOffset dy="3" input="SourceAlpha"/><feGaussianBlur stdDeviation="6" result="b"/><feFlood flood-opacity="0.051"/><feComposite operator="in" in2="b"/><feComposite in="SourceGraphic"/></filter><filter id="c" x="327" y="114" width="421" height="293" filterUnits="userSpaceOnUse"><feOffset dy="3" input="SourceAlpha"/><feGaussianBlur stdDeviation="6" result="d"/><feFlood flood-opacity="0.051"/><feComposite operator="in" in2="d"/><feComposite in="SourceGraphic"/></filter><filter id="e" x="228" y="258" width="342" height="240" filterUnits="userSpaceOnUse"><feOffset dy="3" input="SourceAlpha"/><feGaussianBlur stdDeviation="6" result="f"/><feFlood flood-color="#1dbc86" flood-opacity="0.271"/><feComposite operator="in" in2="f"/><feComposite in="SourceGraphic"/></filter></defs><g transform="translate(10 -4252)"><rect class="a" width="676" height="686" rx="8" transform="translate(-10 4272)"/><g class="b" transform="translate(527 4252)"><circle class="c" cx="4" cy="4" r="4" transform="translate(160)"/><circle class="c" cx="4" cy="4" r="4" transform="translate(128)"/><circle class="c" cx="4" cy="4" r="4" transform="translate(96)"/><circle class="c" cx="4" cy="4" r="4" transform="translate(64)"/><circle class="c" cx="4" cy="4" r="4" transform="translate(32)"/><circle class="c" cx="4" cy="4" r="4"/><circle class="c" cx="4" cy="4" r="4" transform="translate(160 28)"/><circle class="c" cx="4" cy="4" r="4" transform="translate(128 28)"/><circle class="c" cx="4" cy="4" r="4" transform="translate(96 28)"/><circle class="c" cx="4" cy="4" r="4" transform="translate(64 28)"/><circle class="c" cx="4" cy="4" r="4" transform="translate(32 28)"/><circle class="c" cx="4" cy="4" r="4" transform="translate(160 56)"/><circle class="c" cx="4" cy="4" r="4" transform="translate(128 56)"/><circle class="c" cx="4" cy="4" r="4" transform="translate(96 56)"/><circle class="c" cx="4" cy="4" r="4" transform="translate(64 56)"/><circle class="c" cx="4" cy="4" r="4" transform="translate(160 84)"/><circle class="c" cx="4" cy="4" r="4" transform="translate(128 84)"/><circle class="c" cx="4" cy="4" r="4" transform="translate(96 84)"/><circle class="c" cx="4" cy="4" r="4" transform="translate(160 112)"/><circle class="c" cx="4" cy="4" r="4" transform="translate(128 112)"/><circle class="c" cx="4" cy="4" r="4" transform="translate(160 140)"/></g><g class="b" transform="translate(542 4830)"><circle class="c" cx="4" cy="4" r="4" transform="translate(160 140)"/><circle class="c" cx="4" cy="4" r="4" transform="translate(128 140)"/><circle class="c" cx="4" cy="4" r="4" transform="translate(96 140)"/><circle class="c" cx="4" cy="4" r="4" transform="translate(64 140)"/><circle class="c" cx="4" cy="4" r="4" transform="translate(32 140)"/><circle class="c" cx="4" cy="4" r="4" transform="translate(0 140)"/><circle class="c" cx="4" cy="4" r="4" transform="translate(160 112)"/><circle class="c" cx="4" cy="4" r="4" transform="translate(128 112)"/><circle class="c" cx="4" cy="4" r="4" transform="translate(96 112)"/><circle class="c" cx="4" cy="4" r="4" transform="translate(64 112)"/><circle class="c" cx="4" cy="4" r="4" transform="translate(32 112)"/><circle class="c" cx="4" cy="4" r="4" transform="translate(160 84)"/><circle class="c" cx="4" cy="4" r="4" transform="translate(128 84)"/><circle class="c" cx="4" cy="4" r="4" transform="translate(96 84)"/><circle class="c" cx="4" cy="4" r="4" transform="translate(64 84)"/><circle class="c" cx="4" cy="4" r="4" transform="translate(160 56)"/><circle class="c" cx="4" cy="4" r="4" transform="translate(128 56)"/><circle class="c" cx="4" cy="4" r="4" transform="translate(96 56)"/><circle class="c" cx="4" cy="4" r="4" transform="translate(160 28)"/><circle class="c" cx="4" cy="4" r="4" transform="translate(128 28)"/><circle class="c" cx="4" cy="4" r="4" transform="translate(160)"/></g><g transform="translate(-2329 60)"><g transform="translate(-1418 2034)"><g class="m" transform="matrix(1, 0, 0, 1, 3737, 2158)"><rect class="d" width="385" height="602" rx="8" transform="translate(109 74)"/></g><g transform="translate(3875 2277)"><rect class="a" width="327" height="44" rx="8"/><text class="e" transform="translate(28 15)"><tspan x="0" y="12">First Name</tspan><tspan class="f" y="12">*</tspan></text></g><g transform="translate(3875 2344)"><rect class="a" width="327" height="44" rx="8"/><text class="e" transform="translate(28 15)"><tspan x="0" y="12">Last Name</tspan><tspan class="f" y="12">*</tspan></text></g><g transform="translate(3875 2411)"><rect class="a" width="327" height="44" rx="8"/><text class="e" transform="translate(28 15)"><tspan x="0" y="12">Address Line 1</tspan><tspan class="f" y="12">*</tspan></text></g><g transform="translate(3875 2478)"><rect class="a" width="327" height="44" rx="8"/><text class="e" transform="translate(28 15)"><tspan x="0" y="12">Address Line 2</tspan><tspan class="f" y="12">*</tspan></text></g><g transform="translate(3875 2545)"><rect class="a" width="327" height="44" rx="8"/><text class="e" transform="translate(28 15)"><tspan x="0" y="12">Local Government</tspan><tspan class="f" y="12">*</tspan></text></g><g transform="translate(3875 2612)"><rect class="a" width="327" height="44" rx="8"/><text class="e" transform="translate(28 15)"><tspan x="0" y="12">State</tspan><tspan class="f" y="12">*</tspan></text></g><g transform="translate(3875 2679)"><rect class="a" width="327" height="44" rx="8"/><text class="e" transform="translate(28 15)"><tspan x="0" y="12">Postal Code</tspan><tspan class="f" y="12">*</tspan></text></g><g transform="translate(3875 2746)"><rect class="a" width="327" height="44" rx="8"/><text class="e" transform="translate(28 15)"><tspan x="0" y="12">Country</tspan><tspan class="f" y="12">*</tspan></text></g></g><g transform="translate(-1472 1966)"><g class="l" transform="matrix(1, 0, 0, 1, 3791, 2226)"><rect class="d" width="385" height="257" rx="8" transform="translate(345 129)"/></g><g transform="translate(4156 2389)"><rect class="a" width="327" height="44" rx="8"/><text class="e" transform="translate(28 15)"><tspan x="0" y="12">Card Name</tspan><tspan class="f" y="12">*</tspan></text></g><g transform="translate(4156 2456)"><rect class="a" width="327" height="44" rx="8"/><text class="e" transform="translate(28 15)"><tspan x="0" y="12">Card Number</tspan><tspan class="f" y="12">*</tspan></text></g><g transform="translate(4156 2523)"><rect class="a" width="156" height="44" rx="8"/><text class="e" transform="translate(28 15)"><tspan x="0" y="12">Expiry Date</tspan><tspan class="f" y="12">*</tspan></text></g><g transform="translate(4327 2523)"><rect class="a" width="156" height="44" rx="8"/><text class="e" transform="translate(28 15)"><tspan x="0" y="12">CVV</tspan><tspan class="f" y="12">*</tspan></text></g></g><g transform="translate(-1595 1904)"><g class="k" transform="matrix(1, 0, 0, 1, 3914, 2288)"><rect class="c" width="306" height="204" rx="8" transform="translate(246 273)"/></g><text class="g" transform="translate(4199 2663)"><tspan x="6.08" y="12">You have successfully checked </tspan><tspan x="68.293" y="33">out with Pass</tspan></text><g transform="translate(3484 2060.153)"><g transform="translate(802.049 563.793) rotate(90)"><g class="h" transform="translate(3.546 9.751)"><path class="i" d="M10.638,10.638,0,0H10.638Z"/></g><path class="i" d="M17.73,17.73,0,0H17.73Z" transform="translate(7.092)"/><path class="i" d="M7.092,7.092,0,0H7.092Z" transform="translate(0 15.957)"/></g><text class="j" transform="translate(809 587.847)"><tspan x="0" y="0">Pass</tspan></text></g></g></g></g></svg>