<svg xmlns="http://www.w3.org/2000/svg" viewBox="0 0 730 726"><defs><style>.cls-1{fill:#99d3c7;opacity:0.1;}.cls-1,.cls-10,.cls-13,.cls-18,.cls-19,.cls-25,.cls-5,.cls-6{isolation:isolate;}.cls-2{opacity:0.2;}.cls-3{fill:#1dbc86;}.cls-19,.cls-24,.cls-25,.cls-4{fill:#fff;}.cls-23,.cls-5{opacity:0.5;}.cls-10,.cls-13,.cls-19,.cls-6{font-size:15px;font-family:Graphik-Regular, Graphik;}.cls-13,.cls-6{fill:#646567;}.cls-13,.cls-7{letter-spacing:-0.01em;}.cls-8{letter-spacing:0em;}.cls-9{letter-spacing:0em;}.cls-10{fill:#dc3030;}.cls-11{letter-spacing:-0.01em;}.cls-12{letter-spacing:0em;}.cls-14{letter-spacing:0em;}.cls-15{letter-spacing:-0.02em;}.cls-16{letter-spacing:0.01em;}.cls-17{letter-spacing:0.01em;}.cls-20{letter-spacing:-0.07em;}.cls-21{letter-spacing:-0.02em;}.cls-22{letter-spacing:-0.01em;}.cls-24{fill-rule:evenodd;}.cls-25{font-size:34px;font-family:Gilroy-SemiBold;font-weight:600;}.cls-26{letter-spacing:-0.03em;}.cls-27{letter-spacing:0em;}.cls-28{letter-spacing:-0.03em;}</style></defs><g id="Layer_2" data-name="Layer 2"><g id="Layer_1-2" data-name="Layer 1"><rect class="cls-1" y="20" width="676" height="686" rx="8"/><g class="cls-2"><circle class="cls-3" cx="701" cy="4" r="4"/><circle class="cls-3" cx="669" cy="4" r="4"/><circle class="cls-3" cx="637" cy="4" r="4"/><circle class="cls-3" cx="605" cy="4" r="4"/><circle class="cls-3" cx="573" cy="4" r="4"/><circle class="cls-3" cx="541" cy="4" r="4"/><circle class="cls-3" cx="701" cy="32" r="4"/><circle class="cls-3" cx="669" cy="32" r="4"/><circle class="cls-3" cx="637" cy="32" r="4"/><circle class="cls-3" cx="605" cy="32" r="4"/><circle class="cls-3" cx="573" cy="32" r="4"/><circle class="cls-3" cx="701" cy="60" r="4"/><circle class="cls-3" cx="669" cy="60" r="4"/><circle class="cls-3" cx="637" cy="60" r="4"/><circle class="cls-3" cx="605" cy="60" r="4"/><circle class="cls-3" cx="701" cy="88" r="4"/><circle class="cls-3" cx="669" cy="88" r="4"/><circle class="cls-3" cx="637" cy="88" r="4"/><circle class="cls-3" cx="701" cy="116" r="4"/><circle class="cls-3" cx="669" cy="116" r="4"/><circle class="cls-3" cx="701" cy="144" r="4"/></g><g class="cls-2"><circle class="cls-3" cx="716" cy="722" r="4"/><circle class="cls-3" cx="684" cy="722" r="4"/><circle class="cls-3" cx="652" cy="722" r="4"/><circle class="cls-3" cx="620" cy="722" r="4"/><circle class="cls-3" cx="588" cy="722" r="4"/><circle class="cls-3" cx="556" cy="722" r="4"/><circle class="cls-3" cx="716" cy="694" r="4"/><circle class="cls-3" cx="684" cy="694" r="4"/><circle class="cls-3" cx="652" cy="694" r="4"/><circle class="cls-3" cx="620" cy="694" r="4"/><circle class="cls-3" cx="588" cy="694" r="4"/><circle class="cls-3" cx="716" cy="666" r="4"/><circle class="cls-3" cx="684" cy="666" r="4"/><circle class="cls-3" cx="652" cy="666" r="4"/><circle class="cls-3" cx="620" cy="666" r="4"/><circle class="cls-3" cx="716" cy="638" r="4"/><circle class="cls-3" cx="684" cy="638" r="4"/><circle class="cls-3" cx="652" cy="638" r="4"/><circle class="cls-3" cx="716" cy="610" r="4"/><circle class="cls-3" cx="684" cy="610" r="4"/><circle class="cls-3" cx="716" cy="582" r="4"/></g><rect class="cls-4" x="109" y="74" width="385" height="602" rx="8"/><rect class="cls-1" x="138" y="119" width="327" height="44" rx="8"/><g class="cls-5"><text class="cls-6" transform="translate(166 146)"><tspan class="cls-7">F</tspan><tspan x="8.04" y="0">i</tspan><tspan class="cls-8" x="11.86" y="0">r</tspan><tspan class="cls-9" x="17.43" y="0">st Name</tspan></text><text class="cls-10" transform="translate(241.06 146)">*</text></g><rect class="cls-1" x="138" y="186" width="327" height="44" rx="8"/><g class="cls-5"><text class="cls-6" transform="translate(166 213)">Last Name</text><text class="cls-10" transform="translate(239.75 213)">*</text></g><rect class="cls-1" x="138" y="253" width="327" height="44" rx="8"/><g class="cls-5"><text class="cls-6" transform="translate(166 280)"><tspan class="cls-7">A</tspan><tspan class="cls-9" x="9.96" y="0">dd</tspan><tspan class="cls-11" x="28.77" y="0">r</tspan><tspan class="cls-12" x="34.19" y="0">e</tspan><tspan x="42.78" y="0">ss Line 1</tspan></text><text class="cls-10" transform="translate(266.45 280)">*</text></g><rect class="cls-1" x="138" y="320" width="327" height="44" rx="8"/><g class="cls-5"><text class="cls-6" transform="translate(166 347)"><tspan class="cls-7">A</tspan><tspan class="cls-9" x="9.96" y="0">dd</tspan><tspan class="cls-11" x="28.77" y="0">r</tspan><tspan class="cls-12" x="34.19" y="0">e</tspan><tspan x="42.78" y="0">ss Line 2</tspan></text><text class="cls-10" transform="translate(268.78 347)">*</text></g><rect class="cls-1" x="138" y="387" width="327" height="44" rx="8"/><g class="cls-5"><text class="cls-13" transform="translate(166 414)">L<tspan class="cls-14" x="7.88" y="0">ocal G</tspan><tspan class="cls-15" x="52.9" y="0">ov</tspan><tspan class="cls-14" x="69.52" y="0">ernment</tspan></text><text class="cls-10" transform="translate(295.12 414)">*</text></g><rect class="cls-1" x="138" y="454" width="327" height="44" rx="8"/><g class="cls-5"><text class="cls-6" transform="translate(166 481)">S<tspan class="cls-16" x="9.4" y="0">t</tspan><tspan x="14.8" y="0">ate</tspan></text><text class="cls-10" transform="translate(202.75 481)">*</text></g><rect class="cls-1" x="138" y="521" width="327" height="44" rx="8"/><g class="cls-5"><text class="cls-6" transform="translate(166 548)"><tspan class="cls-15">P</tspan><tspan x="8.49" y="0">os</tspan><tspan class="cls-16" x="24.75" y="0">t</tspan><tspan x="30.15" y="0">al Code</tspan></text><text class="cls-10" transform="translate(250 548)">*</text></g><rect class="cls-1" x="138" y="588" width="327" height="44" rx="8"/><g class="cls-5"><text class="cls-6" transform="translate(166 615)">Count<tspan class="cls-16" x="43.21" y="0">r</tspan><tspan x="48.93" y="0">y</tspan></text><text class="cls-10" transform="translate(222.86 615)">*</text></g><rect class="cls-4" x="345" y="129" width="385" height="257" rx="8"/><rect class="cls-1" x="365" y="163" width="327" height="44" rx="8"/><g class="cls-5"><text class="cls-6" transform="translate(393 190)"><tspan class="cls-17">C</tspan><tspan x="11.1" y="0">a</tspan><tspan class="cls-11" x="19.2" y="0">r</tspan><tspan x="24.61" y="0">d Name</tspan></text><text class="cls-10" transform="translate(472.12 190)">*</text></g><rect class="cls-1" x="365" y="230" width="327" height="44" rx="8"/><g class="cls-5"><text class="cls-6" transform="translate(393 257)"><tspan class="cls-17">C</tspan><tspan x="11.1" y="0">a</tspan><tspan class="cls-11" x="19.2" y="0">r</tspan><tspan x="24.61" y="0">d Number</tspan></text><text class="cls-10" transform="translate(487.98 257)">*</text></g><rect class="cls-1" x="365" y="297" width="156" height="44" rx="8"/><g class="cls-5"><text class="cls-6" transform="translate(393 324)"><tspan class="cls-16">E</tspan><tspan x="8.56" y="0">xpi</tspan><tspan class="cls-16" x="29.71" y="0">r</tspan><tspan x="35.43" y="0">y Date</tspan></text><text class="cls-10" transform="translate(472.72 324)">*</text></g><rect class="cls-1" x="536" y="297" width="156" height="44" rx="8"/><g class="cls-5"><text class="cls-6" transform="translate(564 324)"><tspan class="cls-7">C</tspan><tspan x="10.8" y="0">VV</tspan></text><text class="cls-10" transform="translate(594.42 324)">*</text></g><rect class="cls-3" x="246" y="273" width="306" height="204" rx="8"/><g class="cls-18"><text class="cls-19" transform="translate(291.08 387)"><tspan class="cls-20">Y</tspan><tspan x="7.92" y="0">ou h</tspan><tspan class="cls-15" x="38.83" y="0">av</tspan><tspan class="cls-14" x="54.49" y="0">e succ</tspan><tspan class="cls-12" x="100.2" y="0">e</tspan><tspan x="108.79" y="0">ssfully chec</tspan><tspan class="cls-21" x="191.47" y="0">k</tspan><tspan x="198.91" y="0">ed </tspan></text><text class="cls-19" transform="translate(353.29 408)">out with <tspan class="cls-22" x="61.27" y="0">P</tspan><tspan x="69.91" y="0">ass</tspan></text></g><g class="cls-23"><path class="cls-24" d="M351.66,350.13l10.64-10.64v10.64Z"/></g><path class="cls-24" d="M354.32,360.77,372.05,343v17.73Z"/><path class="cls-24" d="M349,343l7.09-7.09V343Z"/><g class="cls-18"><text class="cls-25" transform="translate(379 360)"><tspan class="cls-26">P</tspan><tspan class="cls-27" x="18.87" y="0">a</tspan><tspan class="cls-28" x="40.19" y="0">s</tspan><tspan x="54.84" y="0">s</tspan></text></g></g></g></svg>