<svg xmlns="http://www.w3.org/2000/svg" xmlns:xlink="http://www.w3.org/1999/xlink" width="138" height="152" viewBox="0 0 138 152"><defs><style>.a{fill:none;}.b{opacity:0.2;clip-path:url(#a);}.c{fill:#1dbc86;}</style><clipPath id="a"><rect class="a" width="138" height="152"/></clipPath></defs><g class="b"><g transform="translate(-617 -124)"><circle class="c" cx="4" cy="4" r="4" transform="translate(617 124)"/></g><g transform="translate(-585 -124)"><circle class="c" cx="4" cy="4" r="4" transform="translate(617 124)"/></g><g transform="translate(-553 -124)"><circle class="c" cx="4" cy="4" r="4" transform="translate(617 124)"/></g><g transform="translate(-521 -124)"><circle class="c" cx="4" cy="4" r="4" transform="translate(617 124)"/></g><g transform="translate(-489 -124)"><circle class="c" cx="4" cy="4" r="4" transform="translate(617 124)"/></g><g transform="translate(-617 -96)"><circle class="c" cx="4" cy="4" r="4" transform="translate(617 124)"/></g><g transform="translate(-585 -96)"><circle class="c" cx="4" cy="4" r="4" transform="translate(617 124)"/></g><g transform="translate(-553 -96)"><circle class="c" cx="4" cy="4" r="4" transform="translate(617 124)"/></g><g transform="translate(-521 -96)"><circle class="c" cx="4" cy="4" r="4" transform="translate(617 124)"/></g><g transform="translate(-489 -96)"><circle class="c" cx="4" cy="4" r="4" transform="translate(617 124)"/></g><g transform="translate(-617 -68)"><circle class="c" cx="4" cy="4" r="4" transform="translate(617 124)"/></g><g transform="translate(-585 -68)"><circle class="c" cx="4" cy="4" r="4" transform="translate(617 124)"/></g><g transform="translate(-553 -68)"><circle class="c" cx="4" cy="4" r="4" transform="translate(617 124)"/></g><g transform="translate(-521 -68)"><circle class="c" cx="4" cy="4" r="4" transform="translate(617 124)"/></g><g transform="translate(-489 -68)"><circle class="c" cx="4" cy="4" r="4" transform="translate(617 124)"/></g><g transform="translate(-617 -40)"><circle class="c" cx="4" cy="4" r="4" transform="translate(617 124)"/></g><g transform="translate(-585 -40)"><circle class="c" cx="4" cy="4" r="4" transform="translate(617 124)"/></g><g transform="translate(-553 -40)"><circle class="c" cx="4" cy="4" r="4" transform="translate(617 124)"/></g><g transform="translate(-521 -40)"><circle class="c" cx="4" cy="4" r="4" transform="translate(617 124)"/></g><g transform="translate(-489 -40)"><circle class="c" cx="4" cy="4" r="4" transform="translate(617 124)"/></g><g transform="translate(-617 -12)"><circle class="c" cx="4" cy="4" r="4" transform="translate(617 124)"/></g><g transform="translate(-585 -12)"><circle class="c" cx="4" cy="4" r="4" transform="translate(617 124)"/></g><g transform="translate(-553 -12)"><circle class="c" cx="4" cy="4" r="4" transform="translate(617 124)"/></g><g transform="translate(-521 -12)"><circle class="c" cx="4" cy="4" r="4" transform="translate(617 124)"/></g><g transform="translate(-489 -12)"><circle class="c" cx="4" cy="4" r="4" transform="translate(617 124)"/></g><g transform="translate(-617 16)"><circle class="c" cx="4" cy="4" r="4" transform="translate(617 124)"/></g><g transform="translate(-585 16)"><circle class="c" cx="4" cy="4" r="4" transform="translate(617 124)"/></g><g transform="translate(-553 16)"><circle class="c" cx="4" cy="4" r="4" transform="translate(617 124)"/></g><g transform="translate(-521 16)"><circle class="c" cx="4" cy="4" r="4" transform="translate(617 124)"/></g><g transform="translate(-489 16)"><circle class="c" cx="4" cy="4" r="4" transform="translate(617 124)"/></g></g></svg>