<svg xmlns="http://www.w3.org/2000/svg" width="24.271" height="24.271" viewBox="0 0 24.271 24.271"><defs><style>.a{fill:#1dbc86;}</style></defs><path class="a" d="M301.98,352.863h-10.89a6.691,6.691,0,0,0-6.691,6.691v10.89a6.691,6.691,0,0,0,6.691,6.691h10.89a6.69,6.69,0,0,0,6.69-6.691v-10.89A6.69,6.69,0,0,0,301.98,352.863Zm4.729,17.553a4.757,4.757,0,0,1-4.757,4.757H291.119a4.758,4.758,0,0,1-4.757-4.757V359.582a4.757,4.757,0,0,1,4.757-4.757h10.834a4.757,4.757,0,0,1,4.757,4.757Z" transform="translate(-284.4 -352.863)"/><path class="a" d="M301.721,363.789a6.4,6.4,0,1,0,6.4,6.4A6.4,6.4,0,0,0,301.721,363.789Zm0,10.568a4.172,4.172,0,1,1,4.172-4.172A4.172,4.172,0,0,1,301.721,374.357Z" transform="translate(-289.586 -358.049)"/><path class="a" d="M320.228,362.087a1.435,1.435,0,1,1-1.435-1.435A1.435,1.435,0,0,1,320.228,362.087Z" transform="translate(-300.044 -356.56)"/></svg>