<svg xmlns="http://www.w3.org/2000/svg" width="176.999" height="50.422" viewBox="0 0 176.999 50.422"><defs><style>.a{fill:#1dbc86;}</style></defs><g transform="translate(0 0)"><path class="a" d="M30.533,49.6h0L0,44.315c.011-.091.385-2.983.9-6.984,1.109-8.568,2.785-21.516,2.875-22.182.18-1.3.226-1.355,1.618-1.793l1.965-.609,2.767-.857a19.441,19.441,0,0,1,2.7-7C14.765,1.806,17.157.071,19.56,0l.153,0a3.88,3.88,0,0,1,2.942,1.254c.057.063.113.128.167.194l.066-.005c.1-.009.213-.017.32-.017a5,5,0,0,1,4.457,3.069,10.169,10.169,0,0,1,.71,1.746l1.483-.46a1.748,1.748,0,0,1,.471-.066.867.867,0,0,1,.613.2c.282.282,3.122,3.039,3.242,3.156.006,0,.086,0,.219,0,2.217.036,3.393.058,3.493.067a.479.479,0,0,1,.435.4c.032.234,4.87,32.944,5.421,36.673l.012.083L30.533,49.6ZM9.165,34.036,8.134,38.42A9.786,9.786,0,0,0,14.952,41c.234,0,.478-.008.724-.023a6.8,6.8,0,0,0,4.915-2.437,8.164,8.164,0,0,0,1.651-5.8c-.23-3.643-2.777-5.276-4.823-6.588-1.3-.833-2.421-1.552-2.485-2.569a2.167,2.167,0,0,1,.516-1.574,3.455,3.455,0,0,1,2.466-.965c.15-.009.3-.014.457-.014a8.872,8.872,0,0,1,3.29.666L23.2,15.951a7.529,7.529,0,0,0-3.094-.521c-.267,0-.543.009-.82.027a10.293,10.293,0,0,0-7.368,3.3A8.927,8.927,0,0,0,9.81,25.218c.2,3.1,2.015,4.387,3.619,5.526,1.265.9,2.358,1.673,2.451,3.143a1.9,1.9,0,0,1-1.862,2.046c-.068,0-.139.006-.211.006C11.713,35.94,9.19,34.055,9.165,34.036ZM19.686,1.6h-.078c-3.68.107-6.93,5.838-7.77,9.758l2.373-.734,1.815-.562a14.065,14.065,0,0,1,3.162-6.632,6.962,6.962,0,0,1,1.865-1.453A2.413,2.413,0,0,0,19.686,1.6Zm2.4,1.663a5.2,5.2,0,0,0-1.732,1.26,12.124,12.124,0,0,0-2.574,5l3.759-1.164,1.339-.415A11.725,11.725,0,0,0,22.09,3.263Zm1.661-.189a13.184,13.184,0,0,1,.729,4.371l1.074-.332,1.3-.4C26.476,5.5,25.58,3.421,23.75,3.074Z" transform="translate(0 0)"/><path class="a" d="M44.306,10.349c-.18-.015-3.711-.069-3.711-.069s-2.953-2.867-3.244-3.159a.722.722,0,0,0-.41-.189V50.8l13.232-3.289s-5.4-36.5-5.434-36.754A.482.482,0,0,0,44.306,10.349Z" transform="translate(-6.406 -1.202)"/></g><path class="a" d="M71.753,31.994c-1.522-.826-2.3-1.522-2.3-2.478,0-1.217,1.086-2,2.783-2a9.938,9.938,0,0,1,3.738.826l1.391-4.261s-1.279-1-5.043-1c-5.238,0-8.868,3-8.868,7.217,0,2.391,1.7,4.217,3.956,5.52,1.826,1.043,2.478,1.782,2.478,2.869,0,1.13-.913,2.043-2.608,2.043a11.708,11.708,0,0,1-4.912-1.3l-1.478,4.261A11.316,11.316,0,0,0,66.8,45.163c5.391,0,9.26-2.652,9.26-7.434C76.057,35.167,74.1,33.341,71.753,31.994Z" transform="translate(-10.559 -4.003)"/><path class="a" d="M96.666,21.16a8.115,8.115,0,0,0-6.346,3.173l-.087-.044,2.3-12.041h-6L80.712,42.895h6l2-10.476c.782-3.956,2.825-6.39,4.738-6.39,1.347,0,1.87.913,1.87,2.218a13.751,13.751,0,0,1-.261,2.652l-2.26,12h6l2.347-12.389a22.364,22.364,0,0,0,.436-3.913C101.578,23.2,99.8,21.16,96.666,21.16Z" transform="translate(-13.997 -2.124)"/><path class="a" d="M119.846,23.03c-7.217,0-12,6.521-12,13.78,0,4.651,2.868,8.389,8.259,8.389,7.086,0,11.867-6.346,11.867-13.78C127.976,27.116,125.454,23.03,119.846,23.03ZM116.89,40.592c-2.043,0-2.913-1.739-2.913-3.913,0-3.434,1.783-9.041,5.043-9.041,2.13,0,2.824,1.826,2.824,3.608C121.845,34.941,120.064,40.592,116.89,40.592Z" transform="translate(-18.703 -3.994)"/><path class="a" d="M147.242,23.03c-4.049,0-6.347,3.565-6.347,3.565h-.086l.348-3.217h-5.3c-.26,2.174-.74,5.477-1.217,7.955l-4.173,21.952h6l1.651-8.868h.131a6.989,6.989,0,0,0,3.521.782c7.042,0,11.649-7.215,11.649-14.519C153.415,26.638,151.632,23.03,147.242,23.03ZM141.5,40.678a3.814,3.814,0,0,1-2.479-.869l1-5.608c.7-3.738,2.652-6.216,4.739-6.216,1.826,0,2.391,1.7,2.391,3.3C147.154,35.158,144.851,40.678,141.5,40.678Z" transform="translate(-22.624 -3.994)"/><path class="a" d="M167.87,12.617a3.424,3.424,0,0,0-3.434,3.477,2.764,2.764,0,0,0,2.825,3h.087a3.388,3.388,0,0,0,3.521-3.477A2.852,2.852,0,0,0,167.87,12.617Z" transform="translate(-28.515 -2.188)"/><path class="a" d="M158.441,44.865h6l4.087-21.256h-6.043Z" transform="translate(-27.476 -4.094)"/><path class="a" d="M186.137,21.5h-4.173l.217-1c.348-2.043,1.566-3.869,3.565-3.869a6.25,6.25,0,0,1,1.912.3l1.174-4.695a7.923,7.923,0,0,0-3.261-.521,8.909,8.909,0,0,0-5.868,2,11.388,11.388,0,0,0-3.477,6.781l-.173,1h-2.783l-.87,4.521h2.783l-3.173,16.779h6l3.173-16.779h4.13Z" transform="translate(-29.829 -2.033)"/><path class="a" d="M203.1,23.609s-3.75,9.448-5.434,14.605h-.088c-.114-1.661-1.478-14.605-1.478-14.605h-6.3l3.61,19.517a1.273,1.273,0,0,1-.131,1,10.287,10.287,0,0,1-3.261,3.608,13,13,0,0,1-3.39,1.695l1.651,5.086a13.7,13.7,0,0,0,5.868-3.26c2.739-2.564,5.26-6.521,7.867-11.911l7.347-15.737H203.1Z" transform="translate(-32.364 -4.094)"/></svg>