<svg xmlns="http://www.w3.org/2000/svg" width="111.948" height="31.891" viewBox="0 0 111.948 31.891"><defs><style>.a{opacity:0.5;}.b{fill:#646567;}</style></defs><g class="a" transform="translate(0 0)"><g transform="translate(0 0)"><path class="b" d="M19.311,31.368h0L0,28.028c.007-.058.244-1.886.571-4.417C1.272,18.192,2.332,10,2.389,9.581c.114-.825.143-.857,1.023-1.134l1.243-.385,1.75-.542A12.3,12.3,0,0,1,8.111,3.092C9.338,1.142,10.851.045,12.372,0h.1a2.454,2.454,0,0,1,1.861.793c.036.04.072.081.106.123l.042,0c.066-.005.135-.011.2-.011A3.165,3.165,0,0,1,17.5,2.842a6.432,6.432,0,0,1,.449,1.1l.938-.291a1.105,1.105,0,0,1,.3-.042.548.548,0,0,1,.387.129c.178.178,1.974,1.922,2.051,2l.139,0c1.4.023,2.146.037,2.21.042a.3.3,0,0,1,.275.256c.02.148,3.08,20.836,3.429,23.195l.008.052-8.37,2.081ZM5.8,21.527,5.145,24.3a6.189,6.189,0,0,0,4.312,1.635c.148,0,.3,0,.458-.014a4.3,4.3,0,0,0,3.108-1.542,5.164,5.164,0,0,0,1.044-3.668c-.145-2.3-1.756-3.337-3.05-4.167-.821-.527-1.531-.982-1.572-1.625a1.371,1.371,0,0,1,.326-1,2.185,2.185,0,0,1,1.559-.61c.095-.006.192-.009.289-.009a5.612,5.612,0,0,1,2.081.421l.972-3.636a4.762,4.762,0,0,0-1.957-.33c-.169,0-.343.006-.519.017a6.51,6.51,0,0,0-4.66,2.088A5.646,5.646,0,0,0,6.2,15.95a4.319,4.319,0,0,0,2.289,3.5c.8.568,1.491,1.058,1.55,1.988a1.2,1.2,0,0,1-1.178,1.294c-.043,0-.088,0-.133,0A6.187,6.187,0,0,1,5.8,21.527ZM12.451,1.012H12.4C10.074,1.08,8.019,4.7,7.488,7.184l1.5-.464,1.148-.355a8.9,8.9,0,0,1,2-4.194,4.4,4.4,0,0,1,1.18-.919A1.526,1.526,0,0,0,12.451,1.012Zm1.52,1.052a3.286,3.286,0,0,0-1.1.8,7.668,7.668,0,0,0-1.628,3.16l2.377-.736.847-.262A7.416,7.416,0,0,0,13.971,2.064Zm1.05-.119a8.339,8.339,0,0,1,.461,2.765l.679-.21.819-.253C16.746,3.481,16.179,2.164,15.022,1.944Z" transform="translate(0 0)"/><path class="b" d="M41.6,9.093c-.114-.01-2.347-.043-2.347-.043s-1.868-1.814-2.052-2a.456.456,0,0,0-.259-.119V34.675l8.369-2.08S41.9,9.508,41.874,9.349A.305.305,0,0,0,41.6,9.093Z" transform="translate(-17.628 -3.308)"/></g><path class="b" d="M67.759,28.718C66.8,28.2,66.3,27.756,66.3,27.151c0-.77.687-1.265,1.76-1.265a6.285,6.285,0,0,1,2.364.522l.88-2.695s-.809-.633-3.189-.633c-3.313,0-5.609,1.9-5.609,4.564,0,1.512,1.072,2.667,2.5,3.491,1.155.659,1.568,1.127,1.568,1.814,0,.715-.577,1.292-1.649,1.292a7.405,7.405,0,0,1-3.107-.825l-.935,2.695a7.157,7.157,0,0,0,3.739.935c3.409,0,5.857-1.677,5.857-4.7C70.481,30.725,69.245,29.57,67.759,28.718Z" transform="translate(-29.055 -11.014)"/><path class="b" d="M90.8,17.885a5.133,5.133,0,0,0-4.014,2.007l-.055-.028,1.457-7.616H84.4L80.712,31.631h3.794l1.265-6.626c.495-2.5,1.787-4.041,3-4.041.852,0,1.183.577,1.183,1.4a8.7,8.7,0,0,1-.165,1.677l-1.429,7.588h3.795L93.635,23.8a14.144,14.144,0,0,0,.276-2.475C93.909,19.177,92.782,17.885,90.8,17.885Z" transform="translate(-38.516 -5.845)"/><path class="b" d="M115.437,23.03c-4.565,0-7.588,4.124-7.588,8.715a4.953,4.953,0,0,0,5.224,5.306c4.481,0,7.506-4.014,7.506-8.715C120.579,25.614,118.984,23.03,115.437,23.03Zm-1.87,11.108c-1.292,0-1.842-1.1-1.842-2.475,0-2.172,1.128-5.718,3.19-5.718,1.347,0,1.786,1.155,1.786,2.282C116.7,30.563,115.575,34.138,113.567,34.138Z" transform="translate(-51.466 -10.99)"/><path class="b" d="M141.075,23.03a5.192,5.192,0,0,0-4.015,2.255h-.054l.22-2.034h-3.354c-.165,1.375-.468,3.464-.77,5.031l-2.64,13.884h3.794l1.044-5.609h.083a4.421,4.421,0,0,0,2.227.495c4.454,0,7.368-4.564,7.368-9.183C144.98,25.312,143.852,23.03,141.075,23.03Zm-3.629,11.162a2.413,2.413,0,0,1-1.568-.55l.633-3.547c.44-2.364,1.677-3.932,3-3.932,1.155,0,1.512,1.072,1.512,2.09C141.02,30.7,139.563,34.192,137.446,34.192Z" transform="translate(-62.257 -10.99)"/><path class="b" d="M166.608,12.617a2.165,2.165,0,0,0-2.172,2.2,1.748,1.748,0,0,0,1.787,1.9h.055a2.143,2.143,0,0,0,2.227-2.2A1.8,1.8,0,0,0,166.608,12.617Z" transform="translate(-78.469 -6.021)"/><path class="b" d="M158.441,37.053h3.793l2.585-13.444H161Z" transform="translate(-75.608 -11.266)"/><path class="b" d="M180.945,17.91h-2.64l.137-.633c.22-1.292.99-2.447,2.255-2.447a3.953,3.953,0,0,1,1.209.192l.742-2.969a5.011,5.011,0,0,0-2.062-.33,5.634,5.634,0,0,0-3.711,1.264,7.2,7.2,0,0,0-2.2,4.289l-.109.633h-1.76l-.55,2.86h1.76l-2.007,10.613H175.8l2.007-10.613h2.612Z" transform="translate(-82.083 -5.594)"/><path class="b" d="M197.049,23.608s-2.372,5.976-3.437,9.237h-.055c-.072-1.05-.935-9.237-.935-9.237h-3.987l2.283,12.344a.8.8,0,0,1-.083.633,6.506,6.506,0,0,1-2.062,2.282,8.22,8.22,0,0,1-2.144,1.072l1.045,3.217a8.663,8.663,0,0,0,3.711-2.062,25.6,25.6,0,0,0,4.976-7.534l4.647-9.953h-3.959Z" transform="translate(-89.06 -11.265)"/></g></svg>