<svg xmlns="http://www.w3.org/2000/svg" width="228.271" height="32.805" viewBox="0 0 228.271 32.805"><defs><style>.a{fill:#1dbc86;}</style></defs><g transform="translate(0)"><g transform="translate(0)"><path class="a" d="M13.211,17.663,26.08,4.794a4.606,4.606,0,0,1,3.275-1.379A4.383,4.383,0,0,1,32.63,4.794l.977.977L35.617,3.76l-.977-.977A7.337,7.337,0,0,0,29.355.6a7.578,7.578,0,0,0-5.286,2.183L11.2,15.652Z" transform="translate(-4.751 -0.255)"/><path class="a" d="M25.613,8.79,23.6,6.779,10.733,19.649a4.631,4.631,0,0,1-6.55-6.55L15.272,2.011,13.261,0,2.173,11.088a7.455,7.455,0,0,0,0,10.571,7.337,7.337,0,0,0,5.286,2.183,7.578,7.578,0,0,0,5.286-2.183Z" transform="translate(0.025)"/><path class="a" d="M49.54,17.683A7.337,7.337,0,0,0,44.255,15.5a7.578,7.578,0,0,0-5.286,2.183L26.1,30.552l2.011,2.011L40.98,19.694a4.682,4.682,0,0,1,6.55,0,4.606,4.606,0,0,1,1.379,3.275,4.383,4.383,0,0,1-1.379,3.275L36.441,37.389,38.452,39.4,49.54,28.312A7.525,7.525,0,0,0,49.54,17.683Z" transform="translate(-11.091 -6.595)"/><path class="a" d="M39.406,26.7,26.537,39.569a4.682,4.682,0,0,1-6.55,0l-.977-.977L17,40.6l.977.977a7.337,7.337,0,0,0,5.286,2.183,7.578,7.578,0,0,0,5.286-2.183L41.417,28.711Z" transform="translate(-7.219 -11.36)"/></g></g><g transform="translate(49.653 7.813)"><path class="a" d="M89.158,25.665a3.23,3.23,0,0,0,1.149,1.9,4,4,0,0,0,2.413.689,3.536,3.536,0,0,0,2.3-.689,2.269,2.269,0,0,0,.8-1.781,1.566,1.566,0,0,0-.23-.919,3.012,3.012,0,0,0-.575-.632,3.1,3.1,0,0,0-.977-.46c-.4-.115-.8-.23-1.264-.4l-1.206-.345a12.809,12.809,0,0,1-1.953-.689,7.466,7.466,0,0,1-1.494-.977,4.209,4.209,0,0,1-.919-1.321,4.012,4.012,0,0,1-.345-1.724,4.315,4.315,0,0,1,1.551-3.39,5.594,5.594,0,0,1,1.838-.977,7.639,7.639,0,0,1,2.413-.345,6.048,6.048,0,0,1,3.964,1.206,4.706,4.706,0,0,1,1.724,3.16l-2.7.23a3.061,3.061,0,0,0-.977-1.609,3.273,3.273,0,0,0-2.068-.575,2.934,2.934,0,0,0-1.953.575,1.853,1.853,0,0,0-.689,1.494,1.385,1.385,0,0,0,.23.862,1.987,1.987,0,0,0,.575.632,3.435,3.435,0,0,0,.919.46c.345.115.8.287,1.264.4l1.149.345c.747.23,1.379.46,1.953.689a5.477,5.477,0,0,1,1.494.919,2.888,2.888,0,0,1,.919,1.264,4.1,4.1,0,0,1,.345,1.781,4.694,4.694,0,0,1-1.724,3.677,5.3,5.3,0,0,1-1.953,1.034,8.282,8.282,0,0,1-2.47.345,6.967,6.967,0,0,1-4.194-1.206A5.336,5.336,0,0,1,86.4,25.722Z" transform="translate(-86.4 -13.6)"/><path class="a" d="M122.058,13.8a8.828,8.828,0,0,1,3.332.632,6.818,6.818,0,0,1,2.585,1.724,8.559,8.559,0,0,1,1.666,2.7,9.44,9.44,0,0,1,.575,3.447,9.754,9.754,0,0,1-.632,3.5,7.9,7.9,0,0,1-1.781,2.7l2.183,2.585v.8h-2.758l-1.494-1.838a12.113,12.113,0,0,1-1.724.575,10.692,10.692,0,0,1-1.953.23,9.131,9.131,0,0,1-3.39-.632,7.846,7.846,0,0,1-2.585-1.724,7.512,7.512,0,0,1-1.609-2.7,9.339,9.339,0,0,1-.575-3.39,9.13,9.13,0,0,1,.575-3.39,7.665,7.665,0,0,1,4.251-4.481A7.106,7.106,0,0,1,122.058,13.8ZM122,16.27a5.293,5.293,0,0,0-2.183.46,4.383,4.383,0,0,0-1.609,1.264,5.04,5.04,0,0,0-1.034,1.9,8.618,8.618,0,0,0,0,4.826,5.04,5.04,0,0,0,1.034,1.9,4.912,4.912,0,0,0,1.609,1.264,5.415,5.415,0,0,0,4.366,0,4.249,4.249,0,0,0,1.609-1.206,5.04,5.04,0,0,0,1.034-1.9,8.282,8.282,0,0,0,.345-2.47,8.165,8.165,0,0,0-.345-2.413,5.04,5.04,0,0,0-1.034-1.9,5.326,5.326,0,0,0-1.666-1.264A4.02,4.02,0,0,0,122,16.27Z" transform="translate(-98.101 -13.685)"/><path class="a" d="M156.25,28.648a3.349,3.349,0,0,0,2.7-1.092,4.845,4.845,0,0,0,.977-3.275V14.4H162.8v10a9.436,9.436,0,0,1-.46,3.045,5.267,5.267,0,0,1-1.264,2.068,6.135,6.135,0,0,1-2.068,1.206,9.958,9.958,0,0,1-2.758.4,8.2,8.2,0,0,1-2.758-.4,4.925,4.925,0,0,1-3.332-3.275,9.436,9.436,0,0,1-.46-3.045v-10h2.873v9.939a4.743,4.743,0,0,0,.977,3.275A3.424,3.424,0,0,0,156.25,28.648Z" transform="translate(-113.333 -13.94)"/><path class="a" d="M177.4,29.855,183.2,14.4h4.309L193.2,29.855v.8h-2.815l-1.609-4.654h-7.067L180.1,30.659h-2.643v-.8Zm5.171-6.32h5.343l-.862-2.585c-.345-1.034-.632-1.838-.862-2.47s-.4-1.206-.575-1.666h-.689c-.115.23-.172.517-.287.747a7.527,7.527,0,0,0-.287.862c-.115.345-.23.689-.4,1.092-.115.4-.287.862-.517,1.436Z" transform="translate(-125.119 -13.94)"/><path class="a" d="M223.552,30.659h-2.758l-4.941-6.377h-1.838v6.377H211.2V14.4h5.286a15.672,15.672,0,0,1,2.356.172,4.787,4.787,0,0,1,2.011.8,4.374,4.374,0,0,1,1.953,3.849,5.154,5.154,0,0,1-.345,1.953,4.046,4.046,0,0,1-.862,1.379,3.973,3.973,0,0,1-1.264.919,6.562,6.562,0,0,1-1.494.517l4.711,5.86Zm-9.537-8.848h2.47a4.794,4.794,0,0,0,2.585-.575,2.1,2.1,0,0,0,.919-1.953,1.983,1.983,0,0,0-.977-1.9,5.43,5.43,0,0,0-2.585-.517h-2.47v4.941Z" transform="translate(-139.5 -13.94)"/><path class="a" d="M239,14.4h10.514v2.47h-7.756v4.251h7.182v2.47h-7.182v4.6h7.928v2.47H239Z" transform="translate(-151.328 -13.94)"/><path class="a" d="M266.558,25.665a3.23,3.23,0,0,0,1.149,1.9,4,4,0,0,0,2.413.689,3.536,3.536,0,0,0,2.3-.689,2.269,2.269,0,0,0,.8-1.781,1.567,1.567,0,0,0-.23-.919,1.988,1.988,0,0,0-.575-.632,3.1,3.1,0,0,0-.977-.46c-.4-.115-.8-.23-1.264-.4l-1.206-.345a12.807,12.807,0,0,1-1.953-.689,7.463,7.463,0,0,1-1.494-.977,4.209,4.209,0,0,1-.919-1.321,4.012,4.012,0,0,1-.345-1.724,4.315,4.315,0,0,1,1.551-3.39,5.594,5.594,0,0,1,1.838-.977,7.639,7.639,0,0,1,2.413-.345,6.048,6.048,0,0,1,3.964,1.206,4.706,4.706,0,0,1,1.724,3.16l-2.7.23a3.061,3.061,0,0,0-.977-1.609A3.273,3.273,0,0,0,270,16.013a2.934,2.934,0,0,0-1.953.575,1.853,1.853,0,0,0-.689,1.494,1.385,1.385,0,0,0,.23.862,1.988,1.988,0,0,0,.575.632,3.435,3.435,0,0,0,.919.46c.345.115.8.287,1.264.4l1.149.345c.747.23,1.379.46,1.953.689a5.476,5.476,0,0,1,1.494.919,2.888,2.888,0,0,1,.919,1.264,4.1,4.1,0,0,1,.345,1.781,4.694,4.694,0,0,1-1.724,3.677,5.3,5.3,0,0,1-1.953,1.034,8.282,8.282,0,0,1-2.47.345,6.967,6.967,0,0,1-4.194-1.206,5.337,5.337,0,0,1-2.068-3.562Z" transform="translate(-161.88 -13.6)"/><path class="a" d="M292.357,14.4h5.918a7.764,7.764,0,0,1,2.758.4,4.482,4.482,0,0,1,1.839,1.092,3.587,3.587,0,0,1,.977,1.609,5.682,5.682,0,0,1,.287,2.011,4.944,4.944,0,0,1-.4,2.183,4.05,4.05,0,0,1-1.207,1.551,5.611,5.611,0,0,1-1.953.919,8.9,8.9,0,0,1-2.585.287h-2.873v6.262H292.3V14.4Zm2.873,7.526h2.7a9.533,9.533,0,0,0,1.379-.115,3.079,3.079,0,0,0,1.092-.4,2.029,2.029,0,0,0,.747-.8,2.67,2.67,0,0,0,.287-1.206,2.739,2.739,0,0,0-.287-1.264,2.339,2.339,0,0,0-.689-.8,3.08,3.08,0,0,0-1.092-.4,9.428,9.428,0,0,0-1.321-.115h-2.758v5.113Z" transform="translate(-174.007 -13.94)"/><path class="a" d="M314.4,29.855,320.2,14.4h4.309L330.2,29.855v.8h-2.815l-1.609-4.654h-7.067L317.1,30.659h-2.643v-.8Zm5.171-6.32h5.343l-.862-2.585c-.345-1.034-.632-1.838-.862-2.47s-.4-1.206-.574-1.666h-.689c-.115.23-.172.517-.287.747a7.515,7.515,0,0,0-.287.862c-.115.345-.23.689-.4,1.092-.115.4-.287.862-.517,1.436Z" transform="translate(-183.41 -13.94)"/><path class="a" d="M360.667,26.01a6.25,6.25,0,0,1-1.034,1.781,7.36,7.36,0,0,1-1.494,1.494,6.9,6.9,0,0,1-2.068.977,9.373,9.373,0,0,1-2.585.345,8.53,8.53,0,0,1-3.275-.632,7.209,7.209,0,0,1-2.528-1.781,7.512,7.512,0,0,1-1.609-2.7,9.339,9.339,0,0,1-.575-3.39,9.339,9.339,0,0,1,.575-3.39,8.432,8.432,0,0,1,1.609-2.7,8.035,8.035,0,0,1,2.528-1.781,8.613,8.613,0,0,1,3.332-.632,7.5,7.5,0,0,1,4.481,1.264,6.365,6.365,0,0,1,2.528,3.332l-2.873.575a4.612,4.612,0,0,0-1.666-1.953,4.5,4.5,0,0,0-2.528-.689,5.023,5.023,0,0,0-2.126.46,4.912,4.912,0,0,0-1.609,1.264,6.571,6.571,0,0,0-.977,1.9,8.059,8.059,0,0,0-.345,2.356,7.52,7.52,0,0,0,.345,2.356,5.041,5.041,0,0,0,1.034,1.9,4.912,4.912,0,0,0,1.609,1.264,5.293,5.293,0,0,0,2.183.46,4.352,4.352,0,0,0,2.643-.747,5.674,5.674,0,0,0,1.609-1.9Z" transform="translate(-196.642 -13.6)"/><path class="a" d="M378.6,14.4h10.514v2.47h-7.756v4.251H388.6v2.47h-7.181v4.6h7.928v2.47H378.657V14.4Z" transform="translate(-210.726 -13.94)"/></g></svg>