<svg xmlns="http://www.w3.org/2000/svg" width="144.376" height="20.748" viewBox="0 0 144.376 20.748"><defs><style>.a{opacity:0.5;}.b{fill:#646567;}</style></defs><g class="a" transform="translate(0.025)"><g transform="translate(-0.025)"><g transform="translate(0)"><path class="b" d="M12.472,11.392l8.139-8.139a2.913,2.913,0,0,1,2.071-.872,2.772,2.772,0,0,1,2.071.872l.618.618L26.643,2.6l-.618-.618A4.641,4.641,0,0,0,22.682.6a4.793,4.793,0,0,0-3.343,1.381L11.2,10.12Z" transform="translate(-7.121 -0.382)"/><path class="b" d="M16.19,5.56,14.919,4.288,6.779,12.427A2.929,2.929,0,0,1,2.637,8.285L9.65,1.272,8.378,0,1.365,7.013a4.715,4.715,0,0,0,0,6.686A4.641,4.641,0,0,0,4.708,15.08,4.793,4.793,0,0,0,8.051,13.7Z" transform="translate(0.025)"/><path class="b" d="M40.925,16.881A4.641,4.641,0,0,0,37.582,15.5a4.793,4.793,0,0,0-3.343,1.381L26.1,25.02l1.272,1.272,8.139-8.139a2.961,2.961,0,0,1,4.142,0,2.913,2.913,0,0,1,.872,2.071,2.772,2.772,0,0,1-.872,2.071l-7.013,7.049,1.272,1.272L40.925,23.6A4.759,4.759,0,0,0,40.925,16.881Z" transform="translate(-16.607 -9.868)"/><path class="b" d="M31.171,26.7l-8.139,8.139a2.961,2.961,0,0,1-4.142,0l-.618-.618L17,35.494l.618.618a4.641,4.641,0,0,0,3.343,1.381A4.793,4.793,0,0,0,24.3,36.111l8.139-8.139Z" transform="translate(-10.814 -16.998)"/></g></g><g transform="translate(31.379 4.942)"><path class="b" d="M88.144,21.231a2.043,2.043,0,0,0,.727,1.2,2.529,2.529,0,0,0,1.526.436,2.237,2.237,0,0,0,1.453-.436,1.435,1.435,0,0,0,.509-1.126.991.991,0,0,0-.145-.581,1.9,1.9,0,0,0-.363-.4,1.958,1.958,0,0,0-.618-.291c-.254-.073-.509-.145-.8-.254l-.763-.218a8.1,8.1,0,0,1-1.235-.436,4.722,4.722,0,0,1-.945-.618,2.662,2.662,0,0,1-.581-.836,2.537,2.537,0,0,1-.218-1.09,2.729,2.729,0,0,1,.981-2.144,3.538,3.538,0,0,1,1.163-.618,4.831,4.831,0,0,1,1.526-.218,3.825,3.825,0,0,1,2.507.763,2.976,2.976,0,0,1,1.09,2l-1.708.145a1.936,1.936,0,0,0-.618-1.017,2.07,2.07,0,0,0-1.308-.363,1.856,1.856,0,0,0-1.235.363,1.172,1.172,0,0,0-.436.945.876.876,0,0,0,.145.545,1.257,1.257,0,0,0,.363.4,2.172,2.172,0,0,0,.581.291c.218.073.509.182.8.254l.727.218c.472.145.872.291,1.235.436a3.464,3.464,0,0,1,.945.581,1.827,1.827,0,0,1,.581.8,2.594,2.594,0,0,1,.218,1.126,2.969,2.969,0,0,1-1.09,2.326,3.349,3.349,0,0,1-1.235.654,5.238,5.238,0,0,1-1.562.218,4.406,4.406,0,0,1-2.653-.763A3.375,3.375,0,0,1,86.4,21.267Z" transform="translate(-86.4 -13.6)"/><path class="b" d="M119.06,13.8a5.583,5.583,0,0,1,2.108.4,4.312,4.312,0,0,1,1.635,1.09A5.413,5.413,0,0,1,123.856,17a5.971,5.971,0,0,1,.363,2.18,6.169,6.169,0,0,1-.4,2.217,5,5,0,0,1-1.126,1.708l1.381,1.635v.509H122.33l-.945-1.163a7.66,7.66,0,0,1-1.09.363,6.762,6.762,0,0,1-1.235.145,5.775,5.775,0,0,1-2.144-.4,4.962,4.962,0,0,1-1.635-1.09,4.751,4.751,0,0,1-1.017-1.708,5.907,5.907,0,0,1-.363-2.144,5.775,5.775,0,0,1,.363-2.144,4.848,4.848,0,0,1,2.689-2.834A4.5,4.5,0,0,1,119.06,13.8Zm-.036,1.562a3.348,3.348,0,0,0-1.381.291,2.772,2.772,0,0,0-1.017.8,3.188,3.188,0,0,0-.654,1.2,5.451,5.451,0,0,0,0,3.052,3.188,3.188,0,0,0,.654,1.2,3.107,3.107,0,0,0,1.017.8,3.425,3.425,0,0,0,2.762,0,2.687,2.687,0,0,0,1.017-.763,3.188,3.188,0,0,0,.654-1.2,5.238,5.238,0,0,0,.218-1.562,5.165,5.165,0,0,0-.218-1.526,3.188,3.188,0,0,0-.654-1.2,3.369,3.369,0,0,0-1.054-.8A2.543,2.543,0,0,0,119.024,15.362Z" transform="translate(-103.907 -13.727)"/><path class="b" d="M153.842,23.412a2.118,2.118,0,0,0,1.708-.69,3.064,3.064,0,0,0,.618-2.071V14.4h1.817v6.323a5.968,5.968,0,0,1-.291,1.926,3.331,3.331,0,0,1-.8,1.308,3.881,3.881,0,0,1-1.308.763,6.3,6.3,0,0,1-1.744.254,5.184,5.184,0,0,1-1.744-.254,3.115,3.115,0,0,1-2.108-2.071,5.968,5.968,0,0,1-.291-1.926V14.4h1.817v6.286a3,3,0,0,0,.618,2.071A2.166,2.166,0,0,0,153.842,23.412Z" transform="translate(-126.699 -14.109)"/><path class="b" d="M177.4,24.175l3.67-9.775H183.8l3.6,9.775v.509h-1.781l-1.017-2.943h-4.469l-1.017,2.943h-1.671v-.509Zm3.27-4h3.379l-.545-1.635c-.218-.654-.4-1.163-.545-1.562s-.254-.763-.363-1.054h-.436c-.073.145-.109.327-.182.472a4.756,4.756,0,0,0-.182.545c-.073.218-.145.436-.254.69-.073.254-.182.545-.327.908Z" transform="translate(-144.333 -14.109)"/><path class="b" d="M219.012,24.683h-1.744l-3.125-4.033H212.98v4.033H211.2V14.4h3.343a9.912,9.912,0,0,1,1.49.109,3.028,3.028,0,0,1,1.272.509,2.767,2.767,0,0,1,1.235,2.435,3.26,3.26,0,0,1-.218,1.235,2.559,2.559,0,0,1-.545.872,2.512,2.512,0,0,1-.8.581,4.151,4.151,0,0,1-.945.327l2.98,3.706v.509Zm-6.032-5.6h1.563a3.032,3.032,0,0,0,1.635-.363,1.329,1.329,0,0,0,.581-1.235,1.254,1.254,0,0,0-.618-1.2,3.434,3.434,0,0,0-1.635-.327h-1.562v3.125Z" transform="translate(-165.851 -14.109)"/><path class="b" d="M239,14.4h6.65v1.562h-4.905v2.689h4.542v1.562h-4.542v2.907h5.014v1.562H239Z" transform="translate(-183.55 -14.109)"/><path class="b" d="M265.544,21.231a2.043,2.043,0,0,0,.727,1.2,2.529,2.529,0,0,0,1.526.436,2.236,2.236,0,0,0,1.453-.436,1.435,1.435,0,0,0,.509-1.126.991.991,0,0,0-.145-.581,1.257,1.257,0,0,0-.363-.4,1.958,1.958,0,0,0-.618-.291c-.254-.073-.509-.145-.8-.254l-.763-.218a8.1,8.1,0,0,1-1.235-.436,4.72,4.72,0,0,1-.945-.618,2.662,2.662,0,0,1-.581-.836,2.538,2.538,0,0,1-.218-1.09,2.729,2.729,0,0,1,.981-2.144,3.538,3.538,0,0,1,1.163-.618,4.831,4.831,0,0,1,1.526-.218,3.825,3.825,0,0,1,2.507.763,2.976,2.976,0,0,1,1.09,2l-1.708.145a1.936,1.936,0,0,0-.618-1.017,2.07,2.07,0,0,0-1.308-.363,1.856,1.856,0,0,0-1.235.363,1.172,1.172,0,0,0-.436.945.876.876,0,0,0,.145.545,1.257,1.257,0,0,0,.363.4,2.172,2.172,0,0,0,.581.291c.218.073.509.182.8.254l.727.218c.472.145.872.291,1.235.436a3.463,3.463,0,0,1,.945.581,1.827,1.827,0,0,1,.581.8,2.594,2.594,0,0,1,.218,1.126,2.969,2.969,0,0,1-1.09,2.326,3.349,3.349,0,0,1-1.235.654,5.238,5.238,0,0,1-1.562.218,4.406,4.406,0,0,1-2.653-.763,3.375,3.375,0,0,1-1.308-2.253Z" transform="translate(-199.338 -13.6)"/><path class="b" d="M292.336,14.4h3.743a4.91,4.91,0,0,1,1.744.254,2.835,2.835,0,0,1,1.163.69,2.269,2.269,0,0,1,.618,1.017,3.594,3.594,0,0,1,.182,1.272,3.127,3.127,0,0,1-.254,1.381,2.562,2.562,0,0,1-.763.981,3.549,3.549,0,0,1-1.235.581,5.632,5.632,0,0,1-1.635.182h-1.817V24.72H292.3V14.4Zm1.817,4.76h1.708a6.029,6.029,0,0,0,.872-.073,1.947,1.947,0,0,0,.69-.254,1.283,1.283,0,0,0,.472-.509,1.689,1.689,0,0,0,.182-.763,1.732,1.732,0,0,0-.182-.8,1.48,1.48,0,0,0-.436-.509,1.948,1.948,0,0,0-.69-.254,5.963,5.963,0,0,0-.836-.073H294.19V19.16Z" transform="translate(-217.482 -14.109)"/><path class="b" d="M314.4,24.175l3.67-9.775H320.8l3.6,9.775v.509h-1.781l-1.017-2.943h-4.469l-1.017,2.943h-1.672v-.509Zm3.27-4h3.379l-.545-1.635c-.218-.654-.4-1.163-.545-1.562s-.254-.763-.363-1.054h-.436c-.073.145-.109.327-.182.472a4.753,4.753,0,0,0-.182.545c-.073.218-.145.436-.254.69-.073.254-.182.545-.327.908Z" transform="translate(-231.552 -14.109)"/><path class="b" d="M355.093,21.449a3.953,3.953,0,0,1-.654,1.126,4.655,4.655,0,0,1-.945.945,4.365,4.365,0,0,1-1.308.618,5.928,5.928,0,0,1-1.635.218,5.4,5.4,0,0,1-2.071-.4,4.56,4.56,0,0,1-1.6-1.126,4.751,4.751,0,0,1-1.017-1.708,5.907,5.907,0,0,1-.363-2.144,5.907,5.907,0,0,1,.363-2.144,5.333,5.333,0,0,1,1.017-1.708A5.083,5.083,0,0,1,348.48,14a5.448,5.448,0,0,1,2.108-.4,4.743,4.743,0,0,1,2.834.8,4.026,4.026,0,0,1,1.6,2.108l-1.817.363a2.917,2.917,0,0,0-1.054-1.235,2.845,2.845,0,0,0-1.6-.436,3.177,3.177,0,0,0-1.344.291,3.107,3.107,0,0,0-1.017.8,4.156,4.156,0,0,0-.618,1.2,5.1,5.1,0,0,0-.218,1.49,4.756,4.756,0,0,0,.218,1.49,3.188,3.188,0,0,0,.654,1.2,3.106,3.106,0,0,0,1.017.8,3.348,3.348,0,0,0,1.381.291,2.752,2.752,0,0,0,1.672-.472,3.589,3.589,0,0,0,1.017-1.2Z" transform="translate(-251.351 -13.6)"/><path class="b" d="M378.6,14.4h6.65v1.562h-4.905v2.689h4.578v1.562h-4.542v2.907H385.4v1.562h-6.759V14.4Z" transform="translate(-272.423 -14.109)"/></g></g></svg>