<svg xmlns="http://www.w3.org/2000/svg" width="23.203" height="18.857" viewBox="0 0 23.203 18.857"><defs><style>.a{fill:#1dbc86;}</style></defs><g transform="translate(0 0)"><path class="a" d="M82.687,248.451a9.5,9.5,0,0,1-2.734.749,4.777,4.777,0,0,0,2.093-2.634,9.524,9.524,0,0,1-3.023,1.155,4.764,4.764,0,0,0-8.112,4.342A13.511,13.511,0,0,1,61.1,247.09a4.765,4.765,0,0,0,1.473,6.356,4.74,4.74,0,0,1-2.156-.6c0,.02,0,.04,0,.06a4.763,4.763,0,0,0,3.819,4.667,4.768,4.768,0,0,1-2.15.082,4.764,4.764,0,0,0,4.447,3.305,9.622,9.622,0,0,1-7.048,1.972,13.538,13.538,0,0,0,20.842-11.406q0-.309-.014-.616a9.666,9.666,0,0,0,2.376-2.464Zm0,0" transform="translate(-59.484 -246.219)"/></g></svg>