<svg xmlns="http://www.w3.org/2000/svg" width="217.309" height="49.306" viewBox="0 0 217.309 49.306"><defs><style>.a{fill:#1dbc86;}</style></defs><path class="a" d="M273.947,48.227h-8.554v.907c2.676,0,3.106.573,3.106,3.967v6.117c0,3.393-.43,4.014-3.106,4.014-2.054-.287-3.441-1.386-5.352-3.489l-2.2-2.389c2.963-.526,4.539-2.39,4.539-4.493,0-2.628-2.246-4.635-6.451-4.635H247.52v.907c2.676,0,3.106.573,3.106,3.967v6.117c0,3.393-.43,4.014-3.106,4.014v.908h9.51v-.908c-2.676,0-3.106-.621-3.106-4.014V57.5h.812l5.3,6.642h13.907c6.834,0,9.8-3.631,9.8-7.981S280.781,48.227,273.947,48.227Zm-20.023,7.789V49.661h1.959a3.179,3.179,0,0,1,0,6.355h-1.959Zm20.167,6.643h-.335c-1.72,0-1.959-.43-1.959-2.628V49.661h2.294c4.97,0,5.877,3.631,5.877,6.451C279.968,59.027,279.06,62.659,274.091,62.659Z" transform="translate(-147.912 -28.819)"/><path class="a" d="M149.161,50.688l3.3-9.75c.956-2.819.526-3.631-2.532-3.631v-.956h8.984v.956c-3.011,0-3.727.717-4.922,4.205L148.54,57.856h-.621L143.044,42.9l-4.97,14.958h-.621l-5.3-16.344c-1.147-3.489-1.911-4.205-4.683-4.205v-.956h10.609v.956c-2.82,0-3.585.669-2.581,3.631l3.2,9.75,4.827-14.337h.908Z" transform="translate(-76.17 -21.722)"/><path class="a" d="M207.56,63.838c-5.256,0-9.558-3.871-9.558-8.6,0-4.683,4.3-8.554,9.558-8.554s9.558,3.871,9.558,8.554C217.117,59.967,212.816,63.838,207.56,63.838Zm0-15.674c-4.4,0-5.926,3.966-5.926,7.072,0,3.155,1.53,7.073,5.926,7.073,4.445,0,5.974-3.918,5.974-7.073C213.534,52.129,212,48.164,207.56,48.164Z" transform="translate(-118.321 -27.895)"/><path class="a" d="M350.614,56.087v.956H339.67v-.956c3.2,0,3.776-.812,3.776-5.592V42.85c0-4.78-.573-5.544-3.776-5.544V36.35h9.892c4.922,0,7.647,2.533,7.647,5.927,0,3.3-2.725,5.878-7.647,5.878h-2.724V50.5C346.838,55.275,347.411,56.087,350.614,56.087ZM349.562,38.07h-2.724v8.316h2.724c2.677,0,3.919-1.864,3.919-4.11C353.481,39.983,352.238,38.07,349.562,38.07Z" transform="translate(-202.979 -21.722)"/><path class="a" d="M417.715,59.649l-.239.86c-.43,1.577-.956,2.151-4.349,2.151h-.669c-2.484,0-2.915-.573-2.915-3.966v-2.2c3.728,0,4.015.334,4.015,2.819h.908V52.193h-.908c0,2.485-.287,2.819-4.015,2.819V49.661h2.628c3.394,0,3.919.573,4.349,2.151l.24.907h.764l-.334-4.492h-14.05v.907c2.676,0,3.106.573,3.106,3.967v6.117c0,3.1-.365,3.886-2.475,4-2.005-.306-3.382-1.4-5.266-3.472l-2.2-2.389c2.963-.526,4.54-2.39,4.54-4.493,0-2.628-2.246-4.635-6.451-4.635h-8.411v.907c2.676,0,3.106.573,3.106,3.967v6.117c0,3.393-.43,4.014-3.106,4.014v.908h9.51v-.908c-2.676,0-3.106-.621-3.106-4.014V57.5h.813l5.3,6.642h19.641l.287-4.491h-.718Zm-25.327-3.633V49.661h1.959a3.179,3.179,0,0,1,0,6.355h-1.959Z" transform="translate(-230.655 -28.819)"/><path class="a" d="M480.069,63.838a7.065,7.065,0,0,1-4.3-1.625A3.433,3.433,0,0,0,475,63.838H474.1V57.244h.956a5.3,5.3,0,0,0,5.4,5.017c1.529,0,2.772-.86,2.772-2.293,0-1.242-1.1-2.2-3.058-3.106l-2.724-1.29a5.2,5.2,0,0,1-3.345-4.588c0-2.294,2.151-4.253,5.114-4.253a5.985,5.985,0,0,1,3.728,1.242,2.7,2.7,0,0,0,.621-1.291h.908v5.64h-1c-.335-2.246-1.577-4.11-4.11-4.11-1.338,0-2.581.765-2.581,1.96,0,1.242,1,1.911,3.3,2.963l2.628,1.29c2.294,1.1,3.2,2.868,3.2,4.3C485.9,61.736,483.27,63.838,480.069,63.838Z" transform="translate(-283.308 -27.896)"/><path class="a" d="M516.643,63.838a7.063,7.063,0,0,1-4.3-1.625,3.433,3.433,0,0,0-.764,1.625h-.908V57.244h.956a5.3,5.3,0,0,0,5.4,5.017c1.529,0,2.772-.86,2.772-2.293,0-1.242-1.1-2.2-3.059-3.106l-2.724-1.29a5.2,5.2,0,0,1-3.345-4.588c0-2.294,2.15-4.253,5.114-4.253a5.984,5.984,0,0,1,3.728,1.242,2.693,2.693,0,0,0,.621-1.291h.908v5.64h-1c-.335-2.246-1.577-4.11-4.11-4.11-1.338,0-2.581.765-2.581,1.96,0,1.242,1,1.911,3.3,2.963l2.628,1.29c2.294,1.1,3.2,2.868,3.2,4.3C522.473,61.736,519.844,63.838,516.643,63.838Z" transform="translate(-305.164 -27.896)"/><path class="a" d="M8.708,48.479A21.153,21.153,0,0,0,20.627,67.513L10.539,39.872A21.069,21.069,0,0,0,8.708,48.479Z" transform="translate(-5.204 -23.827)"/><path class="a" d="M49.3,28.789a11.135,11.135,0,0,0-1.744-5.833c-1.072-1.742-2.077-3.217-2.077-4.959a3.662,3.662,0,0,1,3.551-3.754c.094,0,.183.012.274.017a21.144,21.144,0,0,0-31.952,3.981c.5.015.964.025,1.361.025,2.212,0,5.636-.268,5.636-.268a.874.874,0,0,1,.136,1.742s-1.146.135-2.421.2l7.7,22.908,4.628-13.881L31.1,19.94c-1.139-.067-2.218-.2-2.218-.2A.874.874,0,0,1,29.015,18s3.493.268,5.571.268c2.212,0,5.636-.268,5.636-.268a.874.874,0,0,1,.136,1.742s-1.148.135-2.421.2L45.58,42.675l2.11-7.049C48.6,32.7,49.3,30.6,49.3,28.789Z" transform="translate(-10.369 -5.204)"/><path class="a" d="M52.761,65.857,46.416,84.3a21.159,21.159,0,0,0,13-.337,1.858,1.858,0,0,1-.151-.291Z" transform="translate(-27.737 -39.355)"/><path class="a" d="M95.607,36.046a16.228,16.228,0,0,1,.142,2.175A19.95,19.95,0,0,1,94.141,45.8l-6.46,18.678a21.153,21.153,0,0,0,7.926-28.428Z" transform="translate(-52.396 -21.54)"/><path class="a" d="M24.653,0A24.653,24.653,0,1,0,49.308,24.653,24.681,24.681,0,0,0,24.653,0Zm0,48.176A23.523,23.523,0,1,1,48.175,24.653,23.55,23.55,0,0,1,24.653,48.176Z"/></svg>