<svg xmlns="http://www.w3.org/2000/svg" width="137.443" height="31.185" viewBox="0 0 137.443 31.185"><defs><style>.a{opacity:0.5;}.b{fill:#646567;}</style></defs><g class="a"><path class="b" d="M264.235,48.227h-5.41V48.8c1.692,0,1.964.363,1.964,2.509v3.869c0,2.146-.272,2.539-1.964,2.539-1.3-.181-2.176-.877-3.385-2.206L254.049,54c1.874-.333,2.871-1.511,2.871-2.842,0-1.662-1.42-2.932-4.08-2.932h-5.32V48.8c1.692,0,1.964.363,1.964,2.509v3.869c0,2.146-.272,2.539-1.964,2.539v.574h6.015v-.574c-1.692,0-1.964-.393-1.964-2.539V54.091h.514l3.355,4.2h8.8c4.322,0,6.2-2.3,6.2-5.048S268.557,48.227,264.235,48.227ZM251.57,53.153V49.134h1.239a2.01,2.01,0,0,1,0,4.02H251.57Zm12.755,4.2h-.212c-1.088,0-1.239-.272-1.239-1.662V49.134h1.451c3.143,0,3.717,2.3,3.717,4.08C268.043,55.058,267.469,57.355,264.325,57.355Z" transform="translate(-184.52 -35.952)"/><path class="b" d="M141.187,45.419l2.086-6.166c.6-1.783.333-2.3-1.6-2.3v-.6h5.682v.6c-1.9,0-2.357.453-3.113,2.66l-3.446,10.337H140.4l-3.083-9.461-3.143,9.461h-.393l-3.355-10.337c-.725-2.206-1.209-2.66-2.962-2.66v-.6h6.71v.6c-1.783,0-2.267.423-1.632,2.3l2.025,6.166,3.053-9.068h.574Z" transform="translate(-95.022 -27.099)"/><path class="b" d="M204.047,57.532c-3.325,0-6.045-2.448-6.045-5.441,0-2.962,2.721-5.41,6.045-5.41s6.045,2.449,6.045,5.41C210.092,55.084,207.372,57.532,204.047,57.532Zm0-9.913c-2.78,0-3.748,2.508-3.748,4.473,0,2,.967,4.474,3.748,4.474,2.811,0,3.778-2.478,3.778-4.474C207.825,50.127,206.858,47.619,204.047,47.619Z" transform="translate(-147.606 -34.8)"/><path class="b" d="M346.592,48.833v.6H339.67v-.6c2.025,0,2.388-.514,2.388-3.537V40.461c0-3.023-.363-3.506-2.388-3.506v-.6h6.256c3.113,0,4.836,1.6,4.836,3.748,0,2.086-1.723,3.718-4.836,3.718H344.2V45.3C344.2,48.32,344.566,48.833,346.592,48.833Zm-.665-11.4H344.2V42.7h1.723a2.362,2.362,0,0,0,2.479-2.6A2.4,2.4,0,0,0,345.926,37.438Z" transform="translate(-253.216 -27.098)"/><path class="b" d="M406.053,55.451l-.151.544c-.272,1-.6,1.36-2.751,1.36h-.423c-1.571,0-1.844-.363-1.844-2.509v-1.39c2.358,0,2.539.211,2.539,1.783H404v-4.5h-.574c0,1.572-.181,1.783-2.539,1.783V49.134h1.662c2.146,0,2.479.363,2.751,1.36l.151.574h.483l-.211-2.841h-8.886V48.8c1.692,0,1.965.363,1.965,2.509v3.869c0,1.963-.231,2.458-1.566,2.528-1.268-.194-2.139-.885-3.33-2.2L392.512,54c1.874-.333,2.872-1.511,2.872-2.842,0-1.662-1.421-2.932-4.08-2.932h-5.32V48.8c1.692,0,1.964.363,1.964,2.509v3.869c0,2.146-.272,2.539-1.964,2.539v.574H392v-.574c-1.692,0-1.965-.393-1.965-2.539V54.091h.514l3.355,4.2h12.422l.181-2.841h-.454Zm-16.019-2.3V49.134h1.239a2.01,2.01,0,0,1,0,4.02h-1.239Z" transform="translate(-287.742 -35.952)"/><path class="b" d="M477.873,57.533a4.468,4.468,0,0,1-2.72-1.028,2.171,2.171,0,0,0-.483,1.028H474.1V53.362h.6a3.354,3.354,0,0,0,3.415,3.173,1.556,1.556,0,0,0,1.753-1.451c0-.786-.7-1.39-1.934-1.965l-1.723-.816a3.289,3.289,0,0,1-2.116-2.9,2.968,2.968,0,0,1,3.234-2.69,3.785,3.785,0,0,1,2.358.786,1.708,1.708,0,0,0,.393-.817h.574v3.567h-.635c-.212-1.421-1-2.6-2.6-2.6-.846,0-1.633.484-1.633,1.24,0,.786.635,1.209,2.086,1.874l1.662.816A3.154,3.154,0,0,1,481.56,54.3,3.413,3.413,0,0,1,477.873,57.533Z" transform="translate(-353.427 -34.8)"/><path class="b" d="M514.447,57.533a4.467,4.467,0,0,1-2.72-1.028,2.172,2.172,0,0,0-.483,1.028h-.574V53.362h.6a3.354,3.354,0,0,0,3.415,3.173,1.556,1.556,0,0,0,1.753-1.451c0-.786-.7-1.39-1.935-1.965l-1.723-.816a3.289,3.289,0,0,1-2.116-2.9,2.968,2.968,0,0,1,3.234-2.69,3.785,3.785,0,0,1,2.358.786,1.7,1.7,0,0,0,.392-.817h.575v3.567h-.635c-.212-1.421-1-2.6-2.6-2.6-.846,0-1.633.484-1.633,1.24,0,.786.635,1.209,2.086,1.874l1.662.816a3.154,3.154,0,0,1,2.025,2.721A3.413,3.413,0,0,1,514.447,57.533Z" transform="translate(-380.692 -34.8)"/><path class="b" d="M8.708,45.316a13.379,13.379,0,0,0,7.539,12.038L9.866,39.872A13.325,13.325,0,0,0,8.708,45.316Z" transform="translate(-6.492 -29.724)"/><path class="b" d="M37.558,21.409a7.043,7.043,0,0,0-1.1-3.689,6.261,6.261,0,0,1-1.314-3.137,2.316,2.316,0,0,1,2.246-2.374c.059,0,.116.007.173.011a13.373,13.373,0,0,0-20.209,2.518c.314.009.61.016.861.016,1.4,0,3.565-.17,3.565-.17a.553.553,0,0,1,.086,1.1s-.725.085-1.531.128L25.2,30.3l2.927-8.779-2.084-5.71c-.72-.042-1.4-.128-1.4-.128a.553.553,0,0,1,.085-1.1s2.209.17,3.523.17c1.4,0,3.565-.17,3.565-.17a.553.553,0,0,1,.086,1.1s-.726.085-1.531.128l4.834,14.379,1.334-4.458A16.159,16.159,0,0,0,37.558,21.409Z" transform="translate(-12.935 -6.492)"/><path class="b" d="M50.429,65.857,46.416,77.519a13.383,13.383,0,0,0,8.221-.213,1.175,1.175,0,0,1-.1-.184Z" transform="translate(-34.602 -49.095)"/><path class="b" d="M92.694,36.046a10.264,10.264,0,0,1,.09,1.375,12.618,12.618,0,0,1-1.017,4.791L87.681,54.026a13.379,13.379,0,0,0,5.013-17.98Z" transform="translate(-65.364 -26.871)"/><path class="b" d="M15.593,0A15.593,15.593,0,1,0,31.186,15.592,15.61,15.61,0,0,0,15.593,0Zm0,30.47A14.878,14.878,0,1,1,30.47,15.592,14.9,14.9,0,0,1,15.593,30.47Z"/></g></svg>